<svg width="520" height="592" viewBox="0 0 520 592" fill="none" xmlns="http://www.w3.org/2000/svg">
<path d="M807.217 157.584C778.933 169.16 751.848 176.264 727.262 178.554C669.209 183.675 660.362 157.103 635.178 172.561C596.243 196.454 606.528 266.59 537.191 336.132C486.34 387.173 417.586 412.838 401.673 418.778C339.586 441.952 319.846 427.236 283.445 456.4C256.815 477.713 255.928 494.756 217.605 533.235C190.923 560.024 164.513 578.718 146.151 590.46" stroke="#D4D4D8" stroke-miterlimit="10"/>
<path d="M772.155 160.685C743.872 172.269 716.787 179.375 692.204 181.661C634.152 186.781 625.305 160.21 600.111 175.675C561.172 199.564 571.466 269.691 502.125 339.246C451.262 390.257 382.508 415.922 366.595 421.862C304.509 445.036 284.759 430.328 248.368 459.484C221.737 480.797 220.841 497.848 182.527 536.319C155.85 563.096 129.436 581.802 111.073 593.544" stroke="#D4D4D8" stroke-miterlimit="10"/>
<path d="M737.073 163.795C708.787 175.379 681.701 182.483 657.118 184.766C599.069 189.891 590.222 163.32 565.034 178.773C526.106 202.619 536.376 272.792 467.083 342.311C416.216 393.335 347.461 418.999 331.544 424.935C269.462 448.113 249.722 433.398 213.317 462.557C186.686 483.87 185.8 500.913 147.473 539.387C120.79 566.177 94.3851 584.875 76.0183 596.612" stroke="#D4D4D8" stroke-miterlimit="10"/>
<path d="M702.022 166.869C673.736 178.452 646.65 185.556 622.067 187.839C564.019 192.965 555.171 166.393 529.974 181.854C491.039 205.747 501.324 275.883 431.987 345.425C381.129 396.44 312.387 422.119 296.448 428.049C234.375 451.219 214.622 436.507 178.23 465.663C151.599 486.975 150.7 504.022 112.386 542.493C85.7035 569.282 59.2983 587.981 40.9315 599.718" stroke="#D4D4D8" stroke-miterlimit="10"/>
<path d="M666.94 169.948C638.656 181.528 611.571 188.631 586.985 190.918C528.933 196.039 520.09 169.472 494.901 184.925C455.957 208.826 466.251 278.954 396.915 348.496C346.047 399.519 277.293 425.184 261.376 431.119C199.294 454.298 179.549 439.577 143.149 468.742C116.518 490.054 115.627 507.093 77.3042 545.572C50.622 572.361 24.2167 591.059 5.84992 602.797" stroke="#D4D4D8" stroke-miterlimit="10"/>
</svg>
