<svg width="725" height="645" viewBox="0 0 725 645" fill="none" xmlns="http://www.w3.org/2000/svg">
<path d="M724.406 -46.6857C693.58 -32.8409 664.296 -23.7741 637.957 -19.92C575.783 -11.1213 567.914 -38.5661 540.165 -20.8193C497.264 6.61274 504.107 79.8204 426.123 157.08C368.927 213.783 294.141 244.831 276.832 252.017C209.299 280.052 189.124 265.724 148.615 298.555C118.98 322.549 117.034 340.538 73.9288 383.284C43.9172 413.044 14.672 434.269 -5.58887 447.705" stroke="#D4D4D8" stroke-miterlimit="10"/>
<path d="M675.027 -40.4583C644.201 -26.606 614.917 -17.5373 588.582 -13.6881C526.408 -4.88944 518.539 -32.3342 490.78 -14.5784C447.875 12.8491 454.728 86.0478 376.738 163.321C319.532 219.993 244.746 251.04 227.437 258.226C159.903 286.261 139.718 271.942 99.2196 304.764C69.5844 328.758 67.6283 346.756 24.5335 389.493C-5.47211 419.24 -34.7233 440.478 -54.9841 453.914" stroke="#D4D4D8" stroke-miterlimit="10"/>
<path d="M625.629 -34.2216C594.802 -20.3698 565.516 -11.3026 539.18 -7.45588C477.011 1.34732 469.142 -26.0974 441.389 -8.35523C398.498 19.0271 405.322 92.2754 327.387 169.508C270.175 226.193 195.389 257.241 178.076 264.423C110.546 292.462 90.3715 278.134 49.8584 310.96C20.2233 334.954 18.2773 352.943 -24.8317 395.685C-54.8433 425.445 -84.0844 446.674 -104.349 460.106" stroke="#D4D4D8" stroke-miterlimit="10"/>
<path d="M576.268 -28.0251C545.44 -14.1734 516.155 -5.10622 489.819 -1.25947C427.65 7.54373 419.781 -19.901 392.017 -2.14983C349.117 25.2822 355.959 98.4899 277.976 175.749C220.774 232.426 146 263.487 128.664 270.664C61.145 298.694 40.9559 284.371 0.456989 317.193C-29.1782 341.187 -31.1383 359.18 -74.2331 401.917C-104.245 431.678 -133.486 452.907 -153.751 466.338" stroke="#D4D4D8" stroke-miterlimit="10"/>
<path d="M526.869 -21.8207C496.042 -7.97267 466.757 1.0943 440.42 4.94494C378.246 13.7436 370.381 -13.6966 342.628 4.04559C299.717 31.4867 306.57 104.685 228.586 181.945C171.374 238.63 96.588 269.678 79.2749 276.859C11.7455 304.899 -8.43348 290.566 -48.9425 323.397C-78.5776 347.391 -80.5277 365.375 -123.633 408.121C-153.644 437.882 -182.885 459.111 -203.15 472.542" stroke="#D4D4D8" stroke-miterlimit="10"/>
</svg>
