<svg width="128" height="57" viewBox="0 0 128 57" fill="none" xmlns="http://www.w3.org/2000/svg">
<path d="M6.888 9.776C7.912 9.776 8.736 9.744 9.36 9.68C9.984 9.616 10.464 9.488 10.8 9.296C11.152 9.088 11.4 8.792 11.544 8.408C11.688 8.024 11.8 7.504 11.88 6.848H12.768V13.88H11.88C11.784 13.24 11.656 12.728 11.496 12.344C11.336 11.96 11.08 11.672 10.728 11.48C10.376 11.272 9.896 11.144 9.288 11.096C8.696 11.032 7.896 11 6.888 11V15.944C6.888 16.456 6.952 16.888 7.08 17.24C7.224 17.592 7.456 17.88 7.776 18.104C8.096 18.312 8.52 18.464 9.048 18.56C9.576 18.64 10.224 18.68 10.992 18.68C11.904 18.68 12.672 18.616 13.296 18.488C13.936 18.36 14.464 18.136 14.88 17.816C15.296 17.496 15.632 17.072 15.888 16.544C16.144 16 16.36 15.32 16.536 14.504H17.496L17.112 20H0.84V19.04C1.368 19.024 1.8 18.976 2.136 18.896C2.472 18.816 2.728 18.68 2.904 18.488C3.08 18.296 3.2 18.024 3.264 17.672C3.328 17.32 3.36 16.864 3.36 16.304V5.216C3.36 4.656 3.328 4.208 3.264 3.872C3.216 3.52 3.112 3.248 2.952 3.056C2.792 2.848 2.56 2.712 2.256 2.648C1.968 2.568 1.584 2.512 1.104 2.48V1.52H16.272L16.44 6.224H15.408C15.312 5.552 15.16 5 14.952 4.568C14.744 4.12 14.456 3.768 14.088 3.512C13.72 3.24 13.24 3.056 12.648 2.96C12.072 2.848 11.36 2.792 10.512 2.792H7.8C7.384 2.792 7.128 2.848 7.032 2.96C6.936 3.056 6.888 3.296 6.888 3.68V9.776ZM24.4961 16.088C24.4961 16.744 24.5121 17.264 24.5441 17.648C24.5921 18.016 24.6801 18.304 24.8081 18.512C24.9521 18.704 25.1601 18.832 25.4321 18.896C25.7201 18.96 26.1041 19.008 26.5841 19.04V20H19.0241V19.04C19.4881 19.008 19.8561 18.96 20.1281 18.896C20.4161 18.832 20.6321 18.704 20.7761 18.512C20.9361 18.32 21.0401 18.048 21.0881 17.696C21.1361 17.344 21.1601 16.864 21.1601 16.256V13.256C21.1601 12.312 21.1441 11.552 21.1121 10.976C21.0801 10.384 21.0401 9.984 20.9921 9.776C20.9441 9.568 20.8801 9.4 20.8001 9.272C20.7201 9.128 20.6001 9.024 20.4401 8.96C20.2801 8.88 20.0801 8.832 19.8401 8.816C19.6001 8.784 19.2961 8.768 18.9281 8.768V7.952L23.5601 7.04L23.8721 9.152H23.9681C24.4961 8.48 25.1201 7.96 25.8401 7.592C26.5601 7.224 27.3521 7.04 28.2161 7.04C29.2401 7.04 30.0641 7.184 30.6881 7.472C31.3281 7.744 31.8961 8.208 32.3921 8.864C32.6641 9.232 32.9041 9.712 33.1121 10.304C33.3201 10.88 33.4241 11.68 33.4241 12.704V16.088C33.4241 16.744 33.4401 17.264 33.4721 17.648C33.5201 18.016 33.6081 18.304 33.7361 18.512C33.8801 18.704 34.0881 18.832 34.3601 18.896C34.6321 18.96 35.0001 19.008 35.4641 19.04V20H27.9521V19.04C28.4321 19.024 28.8081 18.984 29.0801 18.92C29.3681 18.84 29.5841 18.704 29.7281 18.512C29.8721 18.32 29.9681 18.048 30.0161 17.696C30.0641 17.328 30.0881 16.848 30.0881 16.256V12.992C30.0881 12.176 30.0401 11.488 29.9441 10.928C29.8481 10.368 29.6881 9.92 29.4641 9.584C29.2561 9.232 28.9761 8.984 28.6241 8.84C28.2721 8.68 27.8321 8.6 27.3041 8.6C26.7921 8.6 26.3521 8.744 25.9841 9.032C25.6161 9.32 25.2961 9.72 25.0241 10.232C24.8801 10.52 24.7521 10.896 24.6401 11.36C24.5441 11.808 24.4961 12.28 24.4961 12.776V16.088ZM41.2376 17.408C41.6696 17.44 42.0456 17.472 42.3656 17.504C42.7016 17.536 43.0136 17.576 43.3016 17.624C43.6056 17.656 43.9016 17.696 44.1896 17.744C44.4936 17.776 44.8136 17.816 45.1496 17.864C46.3976 18.04 47.3736 18.512 48.0776 19.28C48.7976 20.032 49.1576 20.968 49.1576 22.088C49.1576 23.448 48.5976 24.48 47.4776 25.184C46.3576 25.888 44.7096 26.24 42.5336 26.24C40.5336 26.24 38.9896 25.944 37.9016 25.352C36.8296 24.776 36.2936 23.952 36.2936 22.88C36.2936 22.048 36.5096 21.416 36.9416 20.984C37.3736 20.568 37.9176 20.36 38.5736 20.36C38.9896 20.36 39.3896 20.44 39.7736 20.6C40.1736 20.776 40.5096 21.024 40.7816 21.344C40.3656 21.424 40.0216 21.608 39.7496 21.896C39.4936 22.2 39.3656 22.552 39.3656 22.952C39.3656 23.592 39.6456 24.08 40.2056 24.416C40.7816 24.768 41.6216 24.944 42.7256 24.944C45.1256 24.944 46.3256 24.184 46.3256 22.664C46.3256 22.12 46.1416 21.648 45.7736 21.248C45.4216 20.864 44.9096 20.632 44.2376 20.552L40.0376 19.976C38.2616 19.736 37.3736 18.944 37.3736 17.6C37.3736 16.944 37.5816 16.408 37.9976 15.992C38.4296 15.576 39.0376 15.288 39.8216 15.128V15.032C39.4536 14.888 39.1176 14.688 38.8136 14.432C38.5256 14.176 38.2696 13.88 38.0456 13.544C37.8216 13.208 37.6456 12.848 37.5176 12.464C37.4056 12.064 37.3496 11.656 37.3496 11.24C37.3496 10.648 37.4696 10.096 37.7096 9.584C37.9656 9.056 38.3096 8.608 38.7416 8.24C39.1896 7.872 39.7096 7.584 40.3016 7.376C40.9096 7.152 41.5656 7.04 42.2696 7.04C42.9576 7.04 43.6296 7.144 44.2856 7.352C44.9416 7.56 45.5016 7.848 45.9656 8.216C46.3336 7.992 46.6536 7.808 46.9256 7.664C47.1976 7.504 47.4456 7.384 47.6696 7.304C47.9096 7.208 48.1256 7.144 48.3176 7.112C48.5096 7.064 48.7016 7.04 48.8936 7.04C49.5016 7.04 49.9896 7.176 50.3576 7.448C50.7416 7.72 50.9336 8.08 50.9336 8.528C50.9336 8.864 50.8296 9.144 50.6216 9.368C50.4136 9.576 50.1416 9.68 49.8056 9.68C49.5656 9.68 49.3736 9.632 49.2296 9.536C49.0856 9.424 48.9416 9.304 48.7976 9.176C48.6696 9.032 48.5336 8.912 48.3896 8.816C48.2456 8.704 48.0536 8.648 47.8136 8.648C47.4776 8.648 47.1576 8.864 46.8536 9.296C47.0136 9.568 47.1256 9.864 47.1896 10.184C47.2536 10.488 47.2856 10.848 47.2856 11.264C47.2856 11.872 47.1896 12.432 46.9976 12.944C46.8056 13.456 46.5016 13.912 46.0856 14.312C45.6856 14.696 45.1656 15.024 44.5256 15.296C43.8856 15.568 43.1096 15.752 42.1976 15.848C41.4296 15.928 40.8936 16.032 40.5896 16.16C40.3016 16.288 40.1576 16.48 40.1576 16.736C40.1576 17.12 40.5176 17.344 41.2376 17.408ZM42.3896 14.48C42.9016 14.48 43.3016 14.208 43.5896 13.664C43.8776 13.12 44.0216 12.36 44.0216 11.384C44.0216 10.392 43.8776 9.632 43.5896 9.104C43.3016 8.56 42.8936 8.288 42.3656 8.288C41.8216 8.288 41.3896 8.56 41.0696 9.104C40.7496 9.648 40.5896 10.392 40.5896 11.336C40.5896 12.296 40.7496 13.064 41.0696 13.64C41.4056 14.2 41.8456 14.48 42.3896 14.48ZM56.3421 16.064C56.3421 16.704 56.3661 17.216 56.4141 17.6C56.4621 17.984 56.5581 18.28 56.7021 18.488C56.8461 18.696 57.0541 18.84 57.3261 18.92C57.5981 18.984 57.9661 19.024 58.4301 19.04V20H50.8701V19.04C51.3181 19.024 51.6781 18.976 51.9501 18.896C52.2381 18.8 52.4541 18.656 52.5981 18.464C52.7581 18.256 52.8621 17.976 52.9101 17.624C52.9741 17.256 53.0061 16.792 53.0061 16.232V6.32C53.0061 5.392 52.9901 4.632 52.9581 4.04C52.9261 3.432 52.8861 3.016 52.8381 2.792C52.7581 2.392 52.5741 2.128 52.2861 2C52.0141 1.872 51.5101 1.808 50.7741 1.808V0.991999L56.3421 0.079999V16.064ZM65.1133 16.064C65.1133 16.704 65.1373 17.216 65.1853 17.6C65.2333 17.984 65.3293 18.28 65.4733 18.488C65.6173 18.696 65.8253 18.84 66.0973 18.92C66.3693 18.984 66.7373 19.024 67.2013 19.04V20H59.6413V19.04C60.0893 19.024 60.4493 18.976 60.7213 18.896C61.0093 18.8 61.2253 18.656 61.3693 18.464C61.5293 18.256 61.6333 17.976 61.6813 17.624C61.7453 17.256 61.7773 16.792 61.7773 16.232V13.28C61.7773 12.352 61.7613 11.592 61.7293 11C61.6973 10.392 61.6573 9.976 61.6093 9.752C61.5293 9.352 61.3453 9.088 61.0573 8.96C60.7853 8.832 60.2813 8.768 59.5453 8.768V7.952L65.1133 7.04V16.064ZM61.5853 1.952C61.5853 1.424 61.7613 0.983999 62.1133 0.631999C62.4813 0.263999 62.9213 0.079999 63.4333 0.079999C63.9613 0.079999 64.4013 0.263999 64.7533 0.631999C65.1213 0.983999 65.3053 1.424 65.3053 1.952C65.3053 2.464 65.1213 2.904 64.7533 3.272C64.4013 3.624 63.9613 3.8 63.4333 3.8C62.9213 3.8 62.4813 3.624 62.1133 3.272C61.7613 2.904 61.5853 2.464 61.5853 1.952ZM69.6572 20H68.9132V15.632H69.9212C70.1932 16.784 70.5852 17.624 71.0972 18.152C71.6092 18.68 72.2732 18.944 73.0892 18.944C73.6812 18.944 74.1372 18.824 74.4572 18.584C74.7932 18.328 74.9612 17.984 74.9612 17.552C74.9612 17.104 74.7612 16.672 74.3612 16.256C73.9612 15.824 73.3132 15.368 72.4172 14.888C71.2012 14.232 70.3292 13.584 69.8012 12.944C69.2732 12.288 69.0092 11.552 69.0092 10.736C69.0092 10.208 69.1052 9.72 69.2972 9.272C69.5052 8.808 69.7772 8.408 70.1132 8.072C70.4652 7.736 70.8812 7.48 71.3612 7.304C71.8412 7.112 72.3612 7.016 72.9212 7.016C73.4172 7.016 73.9052 7.088 74.3852 7.232C74.8812 7.376 75.3132 7.576 75.6812 7.832L76.1132 7.256H76.7372V10.88H75.8012C75.4332 9.968 75.0492 9.312 74.6492 8.912C74.2652 8.512 73.7932 8.312 73.2332 8.312C72.7852 8.312 72.4252 8.432 72.1532 8.672C71.8972 8.912 71.7692 9.232 71.7692 9.632C71.7692 10.08 71.9612 10.504 72.3452 10.904C72.7452 11.304 73.4012 11.744 74.3132 12.224C74.9532 12.576 75.5052 12.92 75.9692 13.256C76.4332 13.592 76.8092 13.936 77.0972 14.288C77.3852 14.624 77.5932 14.984 77.7212 15.368C77.8652 15.736 77.9372 16.136 77.9372 16.568C77.9372 17.128 77.8332 17.632 77.6252 18.08C77.4172 18.528 77.1212 18.912 76.7372 19.232C76.3532 19.552 75.8892 19.8 75.3452 19.976C74.8172 20.152 74.2252 20.24 73.5692 20.24C72.8812 20.24 72.2412 20.152 71.6492 19.976C71.0572 19.784 70.5692 19.512 70.1852 19.16L69.6572 20ZM84.6529 16.064C84.6529 16.72 84.6689 17.24 84.7009 17.624C84.7489 17.992 84.8369 18.28 84.9649 18.488C85.1089 18.696 85.3169 18.832 85.5889 18.896C85.8769 18.96 86.2609 19.008 86.7409 19.04V20H79.1809V19.04C79.6609 19.008 80.0449 18.96 80.3329 18.896C80.6209 18.832 80.8369 18.704 80.9809 18.512C81.1249 18.32 81.2129 18.048 81.2449 17.696C81.2929 17.328 81.3169 16.84 81.3169 16.232V6.368C81.3169 5.408 81.3009 4.656 81.2689 4.112C81.2529 3.552 81.2129 3.128 81.1489 2.84C81.1009 2.632 81.0449 2.472 80.9809 2.36C80.9169 2.232 80.8129 2.136 80.6689 2.072C80.5409 1.992 80.3569 1.944 80.1169 1.928C79.8929 1.896 79.6049 1.88 79.2529 1.88V0.991999L84.6049 0.079999V8.936H84.7009C85.1969 8.28 85.7489 7.8 86.3569 7.496C86.9809 7.192 87.7249 7.04 88.5889 7.04C90.1569 7.04 91.3729 7.52 92.2369 8.48C92.6529 8.96 92.9809 9.544 93.2209 10.232C93.4609 10.904 93.5809 11.608 93.5809 12.344V16.064C93.5809 16.736 93.5969 17.264 93.6289 17.648C93.6609 18.016 93.7409 18.304 93.8689 18.512C94.0129 18.704 94.2209 18.832 94.4929 18.896C94.7649 18.96 95.1409 19.008 95.6209 19.04V20H88.1089V19.04C88.5889 19.024 88.9649 18.984 89.2369 18.92C89.5249 18.84 89.7409 18.704 89.8849 18.512C90.0449 18.32 90.1409 18.048 90.1729 17.696C90.2209 17.328 90.2449 16.84 90.2449 16.232V13.28C90.2449 11.584 90.0609 10.384 89.6929 9.68C89.3249 8.976 88.6929 8.624 87.7969 8.624C86.8369 8.624 86.0769 8.976 85.5169 9.68C85.2449 10.048 85.0289 10.504 84.8689 11.048C84.7249 11.592 84.6529 12.2 84.6529 12.872V16.064ZM57.975 38.6V37.52C58.935 37.248 59.735 36.84 60.375 36.296C61.031 35.736 61.519 35.096 61.839 34.376H63.063V37.28H65.823V38.6H63.063V45.968C63.063 46.96 63.167 47.664 63.375 48.08C63.599 48.496 63.967 48.704 64.479 48.704C65.103 48.704 65.575 48.416 65.895 47.84L66.399 48.536C65.951 49.672 64.895 50.24 63.231 50.24C62.127 50.24 61.263 49.984 60.639 49.472C60.031 48.96 59.727 48.24 59.727 47.312V38.6H57.975ZM74.4111 37.04C75.3711 37.04 76.2751 37.208 77.1231 37.544C77.9871 37.864 78.7391 38.312 79.3791 38.888C80.0351 39.464 80.5471 40.152 80.9151 40.952C81.2991 41.736 81.4911 42.6 81.4911 43.544C81.4911 44.52 81.2991 45.416 80.9151 46.232C80.5471 47.048 80.0351 47.752 79.3791 48.344C78.7391 48.936 77.9871 49.4 77.1231 49.736C76.2751 50.072 75.3711 50.24 74.4111 50.24C73.4671 50.24 72.5711 50.08 71.7231 49.76C70.8751 49.424 70.1311 48.96 69.4911 48.368C68.8511 47.776 68.3471 47.072 67.9791 46.256C67.6111 45.424 67.4271 44.52 67.4271 43.544C67.4271 42.6 67.6111 41.728 67.9791 40.928C68.3471 40.128 68.8511 39.44 69.4911 38.864C70.1311 38.288 70.8751 37.84 71.7231 37.52C72.5711 37.2 73.4671 37.04 74.4111 37.04ZM74.4111 38.432C73.9311 38.432 73.4911 38.56 73.0911 38.816C72.6911 39.056 72.3471 39.4 72.0591 39.848C71.7871 40.296 71.5711 40.84 71.4111 41.48C71.2671 42.104 71.1951 42.8 71.1951 43.568C71.1951 44.368 71.2671 45.088 71.4111 45.728C71.5711 46.368 71.7871 46.912 72.0591 47.36C72.3471 47.808 72.6831 48.16 73.0671 48.416C73.4671 48.656 73.9151 48.776 74.4111 48.776C74.9071 48.776 75.3551 48.656 75.7551 48.416C76.1711 48.16 76.5231 47.808 76.8111 47.36C77.0991 46.896 77.3231 46.344 77.4831 45.704C77.6431 45.064 77.7231 44.352 77.7231 43.568C77.7231 42.8 77.6431 42.104 77.4831 41.48C77.3231 40.856 77.0991 40.32 76.8111 39.872C76.5231 39.408 76.1711 39.056 75.7551 38.816C75.3551 38.56 74.9071 38.432 74.4111 38.432ZM93.9268 48.464H93.8308C92.7268 49.648 91.2948 50.24 89.5348 50.24C88.6228 50.24 87.7828 50.08 87.0148 49.76C86.2628 49.44 85.6068 48.992 85.0468 48.416C84.5028 47.84 84.0788 47.16 83.7748 46.376C83.4708 45.576 83.3188 44.696 83.3188 43.736C83.3188 42.776 83.4708 41.888 83.7748 41.072C84.0948 40.256 84.5188 39.552 85.0468 38.96C85.5908 38.352 86.2308 37.88 86.9668 37.544C87.7188 37.208 88.5268 37.04 89.3908 37.04C90.1908 37.04 90.8948 37.16 91.5028 37.4C92.1268 37.64 92.6708 38.048 93.1348 38.624H93.2308V36.584C93.2308 35.64 93.2148 34.832 93.1828 34.16C93.1668 33.472 93.1348 33.024 93.0868 32.816C93.0068 32.48 92.7588 32.24 92.3428 32.096C91.9428 31.936 91.3188 31.856 90.4708 31.856V31.04L96.5428 30.08V43.808C96.5428 45.008 96.5508 45.936 96.5668 46.592C96.5988 47.232 96.6468 47.72 96.7108 48.056C96.7428 48.264 96.7908 48.432 96.8548 48.56C96.9188 48.688 97.0148 48.792 97.1428 48.872C97.2708 48.936 97.4388 48.984 97.6468 49.016C97.8708 49.032 98.1508 49.04 98.4868 49.04V49.976L93.9268 50.24V48.464ZM93.1828 43.112C93.1828 42.504 93.1188 41.944 92.9908 41.432C92.8628 40.904 92.6708 40.44 92.4148 40.04C92.1268 39.576 91.7588 39.224 91.3108 38.984C90.8628 38.744 90.3828 38.624 89.8708 38.624C88.9268 38.624 88.2068 39.056 87.7108 39.92C87.2148 40.784 86.9668 42.04 86.9668 43.688C86.9668 45.352 87.2148 46.632 87.7108 47.528C88.2068 48.424 88.9188 48.872 89.8468 48.872C90.3748 48.872 90.8788 48.736 91.3588 48.464C91.8388 48.192 92.2308 47.824 92.5348 47.36C92.7588 47.008 92.9188 46.576 93.0148 46.064C93.1268 45.536 93.1828 44.864 93.1828 44.048V43.112ZM107.303 43.16C105.959 43.768 104.943 44.336 104.255 44.864C103.583 45.376 103.247 45.912 103.247 46.472C103.247 46.936 103.375 47.304 103.631 47.576C103.887 47.848 104.207 47.984 104.591 47.984C104.975 47.984 105.335 47.92 105.671 47.792C106.007 47.648 106.295 47.464 106.535 47.24C106.775 47.016 106.959 46.752 107.087 46.448C107.231 46.128 107.303 45.792 107.303 45.44V43.16ZM107.303 41.888V40.88C107.303 39.952 107.135 39.28 106.799 38.864C106.479 38.432 105.975 38.216 105.287 38.216C104.823 38.216 104.471 38.344 104.231 38.6C103.991 38.84 103.767 39.248 103.559 39.824C103.415 40.224 103.207 40.536 102.935 40.76C102.679 40.984 102.319 41.096 101.855 41.096C101.407 41.096 101.063 40.96 100.823 40.688C100.583 40.416 100.463 40.032 100.463 39.536C100.463 38.768 100.879 38.16 101.711 37.712C102.559 37.264 103.831 37.04 105.527 37.04C107.319 37.04 108.599 37.368 109.367 38.024C110.135 38.664 110.519 39.744 110.519 41.264V46.52C110.519 47.88 110.791 48.56 111.335 48.56C111.639 48.56 111.919 48.456 112.175 48.248L112.535 48.944C112.311 49.344 111.959 49.664 111.479 49.904C111.015 50.128 110.487 50.24 109.895 50.24C109.159 50.24 108.599 50.016 108.215 49.568C107.831 49.12 107.639 48.488 107.639 47.672H107.519C107.055 48.504 106.455 49.136 105.719 49.568C104.983 50 104.143 50.216 103.199 50.216C102.191 50.216 101.383 49.936 100.775 49.376C100.167 48.8 99.8629 48.056 99.8629 47.144C99.8629 46.44 100.175 45.784 100.799 45.176C101.423 44.552 102.463 43.944 103.919 43.352L107.303 41.888ZM119.13 53.768C118.954 54.12 118.73 54.448 118.458 54.752C118.202 55.056 117.906 55.312 117.57 55.52C117.25 55.744 116.914 55.92 116.562 56.048C116.21 56.176 115.858 56.24 115.506 56.24C114.978 56.24 114.554 56.112 114.234 55.856C113.914 55.6 113.754 55.256 113.754 54.824C113.754 54.424 113.89 54.112 114.162 53.888C114.45 53.664 114.906 53.528 115.53 53.48C116.954 53.368 117.874 52.92 118.29 52.136L118.938 50.888L114.69 40.376C114.498 39.912 114.33 39.544 114.186 39.272C114.058 39 113.914 38.792 113.754 38.648C113.594 38.488 113.41 38.384 113.202 38.336C112.994 38.288 112.738 38.256 112.434 38.24V37.28H119.706V38.24C119.082 38.24 118.642 38.304 118.386 38.432C118.146 38.544 118.026 38.76 118.026 39.08C118.026 39.208 118.042 39.36 118.074 39.536C118.122 39.696 118.178 39.864 118.242 40.04L120.69 47.048H120.786L122.85 42.368C123.058 41.872 123.234 41.464 123.378 41.144C123.522 40.808 123.626 40.528 123.69 40.304C123.77 40.064 123.826 39.872 123.858 39.728C123.89 39.584 123.906 39.44 123.906 39.296C123.906 38.88 123.786 38.6 123.546 38.456C123.322 38.312 122.858 38.24 122.154 38.24V37.28H127.938V38.24C127.618 38.24 127.346 38.288 127.122 38.384C126.898 38.464 126.666 38.64 126.426 38.912C126.202 39.184 125.946 39.592 125.658 40.136C125.386 40.664 125.042 41.368 124.626 42.248L119.13 53.768Z" fill="#F0F0F0"/>
</svg>
