<svg width="151" height="40" viewBox="0 0 151 40" fill="none" xmlns="http://www.w3.org/2000/svg">
<rect x="111" width="40" height="40" rx="20" fill="#FFC12C"/>
<path d="M3.48 28C2.952 28 2.544 27.864 2.256 27.592C1.984 27.304 1.848 26.896 1.848 26.368V12.712C1.848 12.184 1.984 11.784 2.256 11.512C2.544 11.224 2.952 11.08 3.48 11.08H12.048C12.448 11.08 12.752 11.184 12.96 11.392C13.184 11.6 13.296 11.896 13.296 12.28C13.296 12.68 13.184 12.992 12.96 13.216C12.752 13.424 12.448 13.528 12.048 13.528H4.8V18.184H11.52C11.936 18.184 12.248 18.288 12.456 18.496C12.664 18.704 12.768 19.008 12.768 19.408C12.768 19.808 12.664 20.112 12.456 20.32C12.248 20.528 11.936 20.632 11.52 20.632H4.8V25.552H12.048C12.448 25.552 12.752 25.656 12.96 25.864C13.184 26.072 13.296 26.376 13.296 26.776C13.296 27.176 13.184 27.48 12.96 27.688C12.752 27.896 12.448 28 12.048 28H3.48ZM17.3683 28.192C16.8883 28.192 16.5203 28.064 16.2643 27.808C16.0083 27.536 15.8803 27.152 15.8803 26.656V17.584C15.8803 17.088 16.0083 16.712 16.2643 16.456C16.5203 16.2 16.8803 16.072 17.3443 16.072C17.8083 16.072 18.1683 16.2 18.4243 16.456C18.6803 16.712 18.8083 17.088 18.8083 17.584V19.216L18.5443 18.616C18.8963 17.768 19.4403 17.128 20.1763 16.696C20.9283 16.248 21.7763 16.024 22.7203 16.024C23.6643 16.024 24.4403 16.2 25.0483 16.552C25.6563 16.904 26.1123 17.44 26.4163 18.16C26.7203 18.864 26.8723 19.76 26.8723 20.848V26.656C26.8723 27.152 26.7443 27.536 26.4883 27.808C26.2323 28.064 25.8643 28.192 25.3843 28.192C24.9043 28.192 24.5283 28.064 24.2563 27.808C24.0003 27.536 23.8723 27.152 23.8723 26.656V20.992C23.8723 20.08 23.6963 19.416 23.3443 19C23.0083 18.584 22.4803 18.376 21.7603 18.376C20.8803 18.376 20.1763 18.656 19.6483 19.216C19.1363 19.76 18.8803 20.488 18.8803 21.4V26.656C18.8803 27.68 18.3763 28.192 17.3683 28.192ZM35.3914 32.56C34.5274 32.56 33.6874 32.48 32.8714 32.32C32.0714 32.16 31.3434 31.912 30.6874 31.576C30.3834 31.416 30.1754 31.224 30.0634 31C29.9674 30.776 29.9354 30.544 29.9674 30.304C30.0154 30.08 30.1114 29.88 30.2554 29.704C30.4154 29.528 30.6074 29.408 30.8314 29.344C31.0554 29.28 31.2874 29.312 31.5274 29.44C32.2314 29.792 32.8954 30.016 33.5194 30.112C34.1594 30.224 34.7034 30.28 35.1514 30.28C36.2234 30.28 37.0234 30.016 37.5514 29.488C38.0954 28.976 38.3674 28.208 38.3674 27.184V25.024H38.5834C38.3434 25.84 37.8394 26.496 37.0714 26.992C36.3194 27.472 35.4634 27.712 34.5034 27.712C33.4474 27.712 32.5274 27.472 31.7434 26.992C30.9594 26.496 30.3514 25.808 29.9194 24.928C29.4874 24.048 29.2714 23.024 29.2714 21.856C29.2714 20.976 29.3914 20.184 29.6314 19.48C29.8874 18.76 30.2394 18.144 30.6874 17.632C31.1514 17.12 31.7034 16.728 32.3434 16.456C32.9994 16.168 33.7194 16.024 34.5034 16.024C35.4954 16.024 36.3594 16.272 37.0954 16.768C37.8474 17.248 38.3354 17.888 38.5594 18.688L38.3194 19.288V17.584C38.3194 17.088 38.4474 16.712 38.7034 16.456C38.9754 16.2 39.3434 16.072 39.8074 16.072C40.2874 16.072 40.6554 16.2 40.9114 16.456C41.1674 16.712 41.2954 17.088 41.2954 17.584V26.824C41.2954 28.728 40.7914 30.16 39.7834 31.12C38.7754 32.08 37.3114 32.56 35.3914 32.56ZM35.3194 25.432C35.9434 25.432 36.4794 25.288 36.9274 25C37.3754 24.712 37.7194 24.304 37.9594 23.776C38.2154 23.232 38.3434 22.592 38.3434 21.856C38.3434 20.752 38.0714 19.888 37.5274 19.264C36.9834 18.624 36.2474 18.304 35.3194 18.304C34.6954 18.304 34.1594 18.448 33.7114 18.736C33.2634 19.024 32.9114 19.432 32.6554 19.96C32.4154 20.488 32.2954 21.12 32.2954 21.856C32.2954 22.96 32.5674 23.832 33.1114 24.472C33.6554 25.112 34.3914 25.432 35.3194 25.432ZM48.4118 28.24C47.0838 28.24 46.0838 27.864 45.4118 27.112C44.7398 26.344 44.4038 25.224 44.4038 23.752V12.4C44.4038 11.904 44.5318 11.528 44.7878 11.272C45.0438 11.016 45.4118 10.888 45.8918 10.888C46.3718 10.888 46.7398 11.016 46.9958 11.272C47.2678 11.528 47.4038 11.904 47.4038 12.4V23.608C47.4038 24.344 47.5558 24.888 47.8598 25.24C48.1798 25.592 48.6278 25.768 49.2038 25.768C49.3318 25.768 49.4518 25.768 49.5638 25.768C49.6758 25.752 49.7878 25.736 49.8997 25.72C50.1238 25.688 50.2758 25.752 50.3558 25.912C50.4358 26.056 50.4758 26.36 50.4758 26.824C50.4758 27.224 50.3958 27.536 50.2358 27.76C50.0758 27.984 49.8118 28.12 49.4438 28.168C49.2838 28.184 49.1158 28.2 48.9398 28.216C48.7638 28.232 48.5878 28.24 48.4118 28.24ZM53.5558 28.168C53.0758 28.168 52.7078 28.024 52.4518 27.736C52.1958 27.448 52.0678 27.048 52.0678 26.536V17.728C52.0678 17.2 52.1958 16.8 52.4518 16.528C52.7078 16.24 53.0758 16.096 53.5558 16.096C54.0358 16.096 54.4038 16.24 54.6598 16.528C54.9318 16.8 55.0678 17.2 55.0678 17.728V26.536C55.0678 27.048 54.9398 27.448 54.6838 27.736C54.4278 28.024 54.0518 28.168 53.5558 28.168ZM53.5558 13.864C52.9958 13.864 52.5558 13.728 52.2358 13.456C51.9318 13.168 51.7798 12.776 51.7798 12.28C51.7798 11.768 51.9318 11.376 52.2358 11.104C52.5558 10.832 52.9958 10.696 53.5558 10.696C54.1318 10.696 54.5718 10.832 54.8758 11.104C55.1798 11.376 55.3318 11.768 55.3318 12.28C55.3318 12.776 55.1798 13.168 54.8758 13.456C54.5718 13.728 54.1318 13.864 53.5558 13.864ZM62.481 28.24C61.793 28.24 61.065 28.168 60.297 28.024C59.529 27.88 58.841 27.632 58.233 27.28C57.977 27.12 57.793 26.936 57.681 26.728C57.585 26.504 57.545 26.288 57.561 26.08C57.593 25.856 57.673 25.664 57.801 25.504C57.945 25.344 58.121 25.24 58.329 25.192C58.553 25.144 58.793 25.184 59.049 25.312C59.689 25.616 60.289 25.832 60.849 25.96C61.409 26.072 61.961 26.128 62.505 26.128C63.273 26.128 63.841 26 64.209 25.744C64.593 25.472 64.785 25.12 64.785 24.688C64.785 24.32 64.657 24.04 64.401 23.848C64.161 23.64 63.793 23.488 63.297 23.392L60.897 22.936C59.905 22.744 59.145 22.384 58.617 21.856C58.105 21.312 57.849 20.616 57.849 19.768C57.849 19 58.057 18.336 58.473 17.776C58.905 17.216 59.497 16.784 60.249 16.48C61.001 16.176 61.865 16.024 62.841 16.024C63.545 16.024 64.201 16.104 64.809 16.264C65.433 16.408 66.033 16.64 66.609 16.96C66.849 17.088 67.009 17.256 67.089 17.464C67.185 17.672 67.209 17.888 67.161 18.112C67.113 18.32 67.017 18.512 66.873 18.688C66.729 18.848 66.545 18.952 66.321 19C66.113 19.032 65.873 18.984 65.601 18.856C65.105 18.6 64.625 18.416 64.161 18.304C63.713 18.192 63.281 18.136 62.865 18.136C62.081 18.136 61.497 18.272 61.113 18.544C60.745 18.816 60.561 19.176 60.561 19.624C60.561 19.96 60.673 20.24 60.897 20.464C61.121 20.688 61.465 20.84 61.929 20.92L64.329 21.376C65.369 21.568 66.153 21.92 66.681 22.432C67.225 22.944 67.497 23.632 67.497 24.496C67.497 25.664 67.041 26.584 66.129 27.256C65.217 27.912 64.001 28.24 62.481 28.24ZM71.3918 28.192C70.9118 28.192 70.5438 28.064 70.2878 27.808C70.0318 27.536 69.9038 27.152 69.9038 26.656V12.4C69.9038 11.904 70.0318 11.528 70.2878 11.272C70.5438 11.016 70.9118 10.888 71.3918 10.888C71.8718 10.888 72.2398 11.016 72.4958 11.272C72.7678 11.528 72.9038 11.904 72.9038 12.4V18.616H72.5678C72.9198 17.768 73.4638 17.128 74.1998 16.696C74.9518 16.248 75.7998 16.024 76.7438 16.024C77.6878 16.024 78.4638 16.2 79.0718 16.552C79.6798 16.904 80.1358 17.44 80.4398 18.16C80.7438 18.864 80.8958 19.76 80.8958 20.848V26.656C80.8958 27.152 80.7678 27.536 80.5118 27.808C80.2558 28.064 79.8878 28.192 79.4078 28.192C78.9278 28.192 78.5518 28.064 78.2798 27.808C78.0238 27.536 77.8958 27.152 77.8958 26.656V20.992C77.8958 20.08 77.7198 19.416 77.3678 19C77.0318 18.584 76.5038 18.376 75.7838 18.376C74.9038 18.376 74.1998 18.656 73.6718 19.216C73.1598 19.76 72.9038 20.488 72.9038 21.4V26.656C72.9038 27.68 72.3998 28.192 71.3918 28.192ZM89.8468 28.192C89.3508 28.192 88.9668 28.056 88.6948 27.784C88.4388 27.496 88.3108 27.104 88.3108 26.608V13.648H83.6308C83.2148 13.648 82.8868 13.536 82.6468 13.312C82.4228 13.072 82.3108 12.752 82.3108 12.352C82.3108 11.936 82.4228 11.624 82.6468 11.416C82.8868 11.192 83.2148 11.08 83.6308 11.08H96.0628C96.4788 11.08 96.7988 11.192 97.0228 11.416C97.2628 11.624 97.3828 11.936 97.3828 12.352C97.3828 12.752 97.2628 13.072 97.0228 13.312C96.7988 13.536 96.4788 13.648 96.0628 13.648H91.3828V26.608C91.3828 27.104 91.2548 27.496 90.9988 27.784C90.7428 28.056 90.3588 28.192 89.8468 28.192ZM102.326 28.24C101.11 28.24 100.054 27.992 99.1581 27.496C98.2621 27 97.5661 26.296 97.0701 25.384C96.5741 24.456 96.3261 23.368 96.3261 22.12C96.3261 21.176 96.4621 20.336 96.7341 19.6C97.0221 18.848 97.4301 18.208 97.9581 17.68C98.4861 17.136 99.1181 16.728 99.8541 16.456C100.59 16.168 101.414 16.024 102.326 16.024C103.542 16.024 104.598 16.272 105.494 16.768C106.39 17.264 107.086 17.968 107.582 18.88C108.078 19.792 108.326 20.872 108.326 22.12C108.326 23.064 108.182 23.912 107.894 24.664C107.622 25.416 107.222 26.064 106.694 26.608C106.166 27.136 105.534 27.544 104.798 27.832C104.062 28.104 103.238 28.24 102.326 28.24ZM102.326 25.96C102.918 25.96 103.438 25.816 103.886 25.528C104.334 25.24 104.678 24.816 104.918 24.256C105.174 23.68 105.302 22.968 105.302 22.12C105.302 20.84 105.03 19.888 104.486 19.264C103.942 18.624 103.222 18.304 102.326 18.304C101.734 18.304 101.214 18.448 100.766 18.736C100.318 19.008 99.9661 19.432 99.7101 20.008C99.4701 20.568 99.3501 21.272 99.3501 22.12C99.3501 23.384 99.6221 24.344 100.166 25C100.71 25.64 101.43 25.96 102.326 25.96ZM115.314 28.24C114.29 28.24 113.386 27.992 112.602 27.496C111.834 27 111.234 26.296 110.802 25.384C110.37 24.456 110.154 23.368 110.154 22.12C110.154 20.856 110.37 19.776 110.802 18.88C111.234 17.968 111.834 17.264 112.602 16.768C113.386 16.272 114.29 16.024 115.314 16.024C116.29 16.024 117.138 16.264 117.858 16.744C118.594 17.224 119.09 17.856 119.346 18.64H119.082V12.4C119.082 11.904 119.21 11.528 119.466 11.272C119.722 11.016 120.09 10.888 120.57 10.888C121.05 10.888 121.418 11.016 121.674 11.272C121.946 11.528 122.082 11.904 122.082 12.4V26.656C122.082 27.152 121.954 27.536 121.698 27.808C121.442 28.064 121.074 28.192 120.594 28.192C120.114 28.192 119.746 28.064 119.49 27.808C119.234 27.536 119.106 27.152 119.106 26.656V24.784L119.37 25.504C119.13 26.336 118.642 27 117.906 27.496C117.17 27.992 116.306 28.24 115.314 28.24ZM116.154 25.96C116.746 25.96 117.266 25.816 117.714 25.528C118.162 25.24 118.506 24.816 118.746 24.256C119.002 23.68 119.13 22.968 119.13 22.12C119.13 20.84 118.858 19.888 118.314 19.264C117.77 18.624 117.05 18.304 116.154 18.304C115.562 18.304 115.042 18.448 114.594 18.736C114.146 19.008 113.794 19.432 113.538 20.008C113.298 20.568 113.178 21.272 113.178 22.12C113.178 23.384 113.45 24.344 113.994 25C114.538 25.64 115.258 25.96 116.154 25.96ZM129.057 28.24C128.209 28.24 127.449 28.08 126.777 27.76C126.121 27.424 125.601 26.976 125.217 26.416C124.849 25.856 124.665 25.224 124.665 24.52C124.665 23.656 124.889 22.976 125.337 22.48C125.785 21.968 126.513 21.6 127.521 21.376C128.529 21.152 129.881 21.04 131.577 21.04H132.777V22.768H131.601C130.609 22.768 129.817 22.816 129.225 22.912C128.633 23.008 128.209 23.176 127.953 23.416C127.713 23.64 127.593 23.96 127.593 24.376C127.593 24.904 127.777 25.336 128.145 25.672C128.513 26.008 129.025 26.176 129.681 26.176C130.209 26.176 130.673 26.056 131.073 25.816C131.489 25.56 131.817 25.216 132.057 24.784C132.297 24.352 132.417 23.856 132.417 23.296V20.536C132.417 19.736 132.241 19.16 131.889 18.808C131.537 18.456 130.945 18.28 130.113 18.28C129.649 18.28 129.145 18.336 128.601 18.448C128.073 18.56 127.513 18.752 126.921 19.024C126.617 19.168 126.345 19.208 126.105 19.144C125.881 19.08 125.705 18.952 125.577 18.76C125.449 18.552 125.385 18.328 125.385 18.088C125.385 17.848 125.449 17.616 125.577 17.392C125.705 17.152 125.921 16.976 126.225 16.864C126.961 16.56 127.665 16.344 128.337 16.216C129.025 16.088 129.649 16.024 130.209 16.024C131.361 16.024 132.305 16.2 133.041 16.552C133.793 16.904 134.353 17.44 134.721 18.16C135.089 18.864 135.273 19.776 135.273 20.896V26.656C135.273 27.152 135.153 27.536 134.913 27.808C134.673 28.064 134.329 28.192 133.881 28.192C133.433 28.192 133.081 28.064 132.825 27.808C132.585 27.536 132.465 27.152 132.465 26.656V25.504H132.657C132.545 26.064 132.321 26.552 131.985 26.968C131.665 27.368 131.257 27.68 130.761 27.904C130.265 28.128 129.697 28.24 129.057 28.24ZM141.177 32.512C140.825 32.512 140.537 32.416 140.313 32.224C140.089 32.048 139.953 31.808 139.905 31.504C139.873 31.2 139.929 30.88 140.073 30.544L141.705 26.92V28.168L137.337 18.064C137.193 17.712 137.145 17.384 137.193 17.08C137.241 16.776 137.385 16.536 137.625 16.36C137.881 16.168 138.225 16.072 138.657 16.072C139.025 16.072 139.321 16.16 139.545 16.336C139.769 16.496 139.969 16.808 140.145 17.272L143.385 25.36H142.665L145.977 17.248C146.153 16.8 146.361 16.496 146.601 16.336C146.841 16.16 147.161 16.072 147.561 16.072C147.913 16.072 148.193 16.168 148.401 16.36C148.609 16.536 148.737 16.776 148.785 17.08C148.833 17.368 148.777 17.688 148.617 18.04L142.785 31.36C142.577 31.808 142.353 32.112 142.113 32.272C141.873 32.432 141.561 32.512 141.177 32.512Z" fill="#080808"/>
</svg>
